<svg xmlns="http://www.w3.org/2000/svg" viewBox="0 0 24 24" shape-rendering="crispEdges">
  <rect x="4" y="10" width="14" height="9" fill="#241f16"/>
  <rect x="14" y="4" width="7" height="7" fill="#241f16"/>
  <rect x="1" y="14" width="5" height="4" fill="#241f16"/>
  <rect x="15" y="1" width="2" height="3" fill="#241f16"/>
  <rect x="18" y="2" width="2" height="3" fill="#241f16"/>

  <rect x="5" y="11" width="12" height="7" fill="#c9995f"/>
  <rect x="15" y="5" width="5" height="5" fill="#c9995f"/>
  <rect x="2" y="15" width="3" height="2" fill="#c9995f"/>
  <rect x="15" y="2" width="2" height="3" fill="#e8879a"/>
  <rect x="18" y="3" width="2" height="3" fill="#e8879a"/>
  <!-- 살짝 들어올린 날개(기쁨 동작) -->
  <rect x="6" y="12" width="7" height="4" fill="#8a6a42"/>
  <rect x="6" y="15" width="5" height="3" fill="#f5f0e0"/>
  <rect x="20" y="7" width="2" height="2" fill="#e6b93d"/>
  <!-- 볼 무늬(더 진한 분홍 — 기쁨 홍조) -->
  <rect x="15" y="8" width="2" height="1" fill="#d96a86"/>
  <!-- 눈(웃음) -->
  <rect x="17" y="6" width="2" height="2" fill="#241f16"/>
  <!-- 기쁨 반짝임 -->
  <rect x="11" y="1" width="2" height="2" fill="#e6b93d"/>
  <rect x="21" y="1" width="2" height="2" fill="#e6b93d"/>
</svg>
